<svg width="109" height="33" fill="none" xmlns="http://www.w3.org/2000/svg"><path d="M102.4 0H6.6C2.9 0 0 3 0 6.6v19.8C0 30 3 33 6.6 33h95.8c3.7 0 6.6-3 6.6-6.6V6.6c0-3.6-3-6.6-6.6-6.6z" fill="#D6DEEA"/><path fill-rule="evenodd" clip-rule="evenodd" d="M34.9 24.7h.8c0-.2 0-.4.2-.6 0-.2.2-.4.3-.5l.5-.3.6-.1.7.1a1.5 1.5 0 01.8 1l.1.6-.1.7-.3.6c-.2.1-.3.3-.5.3l-.7.2-.6-.1a1.5 1.5 0 01-.8-.8l-.2-.7H35v1.5h-.6v-3.4h.6v1.5zm1.4.3v.4l.3.4.3.3.4.1.4-.1c.2 0 .3-.2.3-.3l.2-.4.1-.4v-.1-.5L38 24a1 1 0 00-.8-.4.9.9 0 00-.6.4l-.2.4v.5zm5 .2h-.5v1.4h-.6v-3.4h.6v1.5h.4l1.2-1.5h.7L41.7 25l1.5 1.7h-.7l-1.2-1.4zm5.9-2v3.4h-.6v-2.9h-1.2v1l-.2.8c0 .2 0 .4-.2.6 0 .2-.2.3-.3.4l-.6.1H44v-.5h.4c0-.2.1-.2.2-.3v-.5l.1-.6v-1.5h2.5zm3.6 3.4v-.1-.2l-.3.1c-.2.2-.5.3-.8.3l-.4-.1-.4-.2a1 1 0 01-.3-.7v-.5c.1-.1.2-.3.4-.3l.5-.3h1.2v-.3c0-.2 0-.4-.2-.5l-.5-.2a1 1 0 00-.3 0l-.3.2-.1.2v.2h-.7l.1-.4.3-.3.4-.2.6-.1h.5l.5.3.2.3.1.5V26.2l.1.4h-.6zm-1-.4a1 1 0 00.6-.2 1 1 0 00.3-.3V25h-.5l-.8.1c-.2.1-.2.3-.2.5v.2l.1.2.2.1h.3zm4.5-2.8c.3 0 .5 0 .7.2a1.3 1.3 0 01.7.8V25.7c0 .2-.2.4-.3.5-.2.1-.3.3-.5.3l-.7.2c-.2 0-.4 0-.6-.2a1.4 1.4 0 01-.8-.8 2 2 0 01-.1-.7v-.3-1l.4-.7.5-.5.6-.2a4.3 4.3 0 00.6-.2l.2-.1v-.2h.5v.5l-.3.2-.4.2a23 23 0 01-.8.2 1.2 1.2 0 00-.7.6l-.1.5.5-.4.6-.2zm0 .5a1 1 0 00-.5.1l-.3.2-.2.4v.9l.2.4a.9.9 0 00.7.3h.5c0-.2.2-.2.3-.3l.1-.4V25v-.4a.9.9 0 00-.5-.6 1 1 0 00-.4 0zm4.7 1l.1-.7.3-.5.5-.4.7-.1.7.1a1.5 1.5 0 01.8 1l.1.6-.1.7-.3.6c-.2.1-.3.3-.5.3l-.7.2c-.2 0-.5 0-.7-.2a1.5 1.5 0 01-.8-.9 2 2 0 010-.6v-.1zm.6 0v.5l.3.4a1 1 0 00.7.4l.4-.1c.2 0 .3-.2.4-.3l.1-.4.1-.4v-.1-.5l-.2-.4a1 1 0 00-.8-.4.9.9 0 00-.7.4l-.2.4v.5zm6.7-1.7v3.4h-.6v-2.9h-1.2v1l-.1.8-.2.6c0 .2-.2.3-.4.4l-.5.1H63v-.5h.4l.2-.3.1-.5v-.6l.1-1.5h2.4zm3.8 0h.6v3.4H70v-2.4l-1.6 2.4h-.6v-3.4h.6v2.5l1.6-2.5zm5 3.4h-.7v-1.4h-1.6v1.4h-.6v-3.4h.6v1.5h1.6v-1.5h.6v3.4zm3.7-2.9h-1.6v3h-.6v-3.5h2.2v.5zm-36.4-5.2l-.2-.4-.3-1-.4-1.1-.2-.5h-4l-1.1 3h-1.4l3.8-10.4H40l3.9 10.4h-1.4zm-3.1-8.8l-.2.5a225.5 225.5 0 00-1 2.6c0 .4-.2.8-.3 1.1l-.2.5H41l-1.7-4.7zm9.4 1c1 0 1.8.3 2.4 1 .6.8 1 1.7 1 3 0 1.1-.4 2-1 2.8a3 3 0 01-2.4 1 3 3 0 01-1.4-.3c-.5-.2-.8-.5-1-1v4H45V10.6h1.2V12c.2-.4.6-.7 1-1l1.5-.3zm-.2 6.8a2 2 0 001.6-.8c.4-.5.6-1.2.6-2 0-1-.2-1.6-.6-2.1a2 2 0 00-1.6-.8 2 2 0 00-1.7.8c-.4.5-.6 1.2-.6 2 0 .9.2 1.6.6 2 .5.6 1 .9 1.7.9zm8.8-6.8c1 0 1.8.3 2.4 1 .6.8.9 1.7.9 3 0 1.1-.3 2-1 2.8a3 3 0 01-2.3 1 3 3 0 01-1.5-.3c-.4-.2-.7-.5-1-1v4h-1.3V10.6h1.2V12l1-1c.5-.2 1-.3 1.6-.3zm-.3 6.8a2 2 0 001.7-.8c.4-.5.6-1.2.6-2 0-1-.2-1.6-.6-2.1a2 2 0 00-1.7-.8 2 2 0 00-1.6.8c-.4.5-.6 1.2-.6 2 0 .9.2 1.6.6 2 .4.6 1 .9 1.6.9zm8.5-1.8a3 3 0 001.1 2.2c.7.5 1.6.8 2.7.8 1.2 0 2.2-.3 2.9-.8.7-.6 1-1.4 1-2.3 0-.8-.2-1.4-.7-1.8-.5-.4-1.2-.8-2.3-1l-1-.4c-.8-.1-1.3-.4-1.6-.6-.3-.3-.5-.6-.5-1 0-.5.2-1 .7-1.2.4-.4 1-.5 1.6-.5.7 0 1.2.2 1.7.5.4.3.6.7.7 1.3H73c0-.9-.4-1.6-1-2.1a4 4 0 00-2.7-.9c-1 0-2 .3-2.6.8-.7.6-1 1.3-1 2.2 0 1.3.9 2.2 2.7 2.7l1.4.4c.7.1 1.2.4 1.5.7.3.2.5.6.5 1 0 .6-.2 1-.7 1.3-.5.4-1 .5-1.7.5-.8 0-1.4-.1-1.9-.5-.5-.3-.8-.8-.8-1.3h-1.3zM75.2 9v1.7H74v1h1v4.8c0 .7.2 1.3.5 1.6.3.3.8.5 1.5.5a6 6 0 00.8 0v-1.1a12.1 12.1 0 01-.5 0c-.3 0-.6-.1-.7-.3-.2-.1-.3-.4-.3-.8v-4.6H78v-1h-1.5V9h-1.2zm7.5 9.6c-1 0-2-.4-2.6-1-.6-.8-1-1.8-1-3s.4-2.1 1-2.9c.7-.7 1.5-1 2.6-1s2 .3 2.6 1c.7.8 1 1.7 1 3 0 1.1-.3 2-1 2.8-.6.7-1.5 1-2.6 1zm0-1.1a2 2 0 001.7-.8c.4-.5.6-1.2.6-2 0-1-.2-1.7-.6-2.2a2 2 0 00-1.7-.7 2 2 0 00-1.7.7c-.4.5-.6 1.2-.6 2.1 0 1 .2 1.6.6 2.1.4.5 1 .8 1.7.8zm5 1H89v-4.8c0-.5.2-1 .5-1.3.3-.4.7-.5 1.2-.5a3.7 3.7 0 01.7 0v-1.2a3 3 0 00-.5 0 2 2 0 00-1.2.3c-.3.3-.6.6-.7 1v-1.3h-1.2v7.8zm8-6.7a2 2 0 00-1.5.6c-.4.4-.6 1-.6 1.6h4.2c0-.7-.2-1.2-.5-1.6a2 2 0 00-1.5-.6zm2.1 4.5h1.3c-.1.7-.5 1.2-1.1 1.6-.6.5-1.3.7-2.2.7-1 0-2-.4-2.6-1-.6-.8-1-1.7-1-3 0-1.2.4-2.1 1-2.8.7-.8 1.5-1.1 2.6-1.1 1 0 1.8.3 2.4 1a4 4 0 011 2.8v.5h-5.6c0 .8.2 1.4.6 1.8.4.5 1 .7 1.7.7.4 0 .9-.1 1.2-.3.4-.2.6-.5.7-1z" fill="#295091"/><path d="M24.8 25c-1 1.3-1.9 2.7-3.4 2.7-1.4 0-1.9-.9-3.6-.9-1.6 0-2.2.9-3.5 1-1.5 0-2.6-1.5-3.5-2.8-1.8-2.7-3.3-7.7-1.4-11 1-1.7 2.7-2.7 4.5-2.7 1.5 0 2.8 1 3.6 1 .9 0 2.5-1.3 4.2-1a5 5 0 014 2c-.1.1-2.4 1.5-2.4 4.2 0 3.3 3 4.4 3 4.4 0 .1-.5 1.6-1.5 3.1zM18.5 7.6c.8-1 2.1-1.6 3.2-1.7.2 1.3-.3 2.6-1.1 3.5a4 4 0 01-3.2 1.6c-.2-1.3.4-2.6 1.1-3.4z" fill="#295091"/></svg>