<svg width="111" height="33" fill="none" xmlns="http://www.w3.org/2000/svg"><path d="M107.6 0H3.4A3.4 3.4 0 000 3.4v26.2C0 31.5 1.5 33 3.4 33h104.2c1.9 0 3.4-1.5 3.4-3.4V3.4c0-1.9-1.5-3.4-3.4-3.4z" fill="#295091" fill-opacity=".2"/><path fill-rule="evenodd" clip-rule="evenodd" d="M36.8 24.2h1l.1-.7c0-.2.2-.4.4-.5a1.6 1.6 0 011.2-.5c.2 0 .5 0 .7.2.2 0 .4.2.6.4l.3.6.1.8v.9l-.4.6a1.6 1.6 0 01-1.3.5h-.7a1.6 1.6 0 01-1-1v-.7h-1v1.7h-.7v-4h.7v1.7zm1.6.4v.5l.3.5.3.3.5.1a1 1 0 00.8-.4l.2-.5v-.6-.6l-.2-.4a1 1 0 00-.8-.4 1 1 0 00-.5 0 1 1 0 00-.3.4l-.2.4-.1.6zm5.5.2h-.5v1.7h-.7v-4h.7v1.7h.4l1.3-1.6h.8l-1.5 1.8 1.6 2h-.8l-1.3-1.6zm6.5-2.2v3.9h-.7V23h-1.3v1.1l-.2 1c0 .3 0 .5-.2.7 0 .2-.2.3-.4.4l-.6.2h-.2v-.6h.2l.3-.1.2-.3.1-.5v-.8l.1-1.6h2.7zm4 3.9v-.2-.2l-.3.1-.9.3h-.5l-.4-.3a1 1 0 01-.4-.8l.1-.6.4-.4.5-.2h1.4v-.4c0-.2 0-.4-.2-.6l-.6-.2a1 1 0 00-.4 0l-.2.2-.2.2v.3H52v-.5l.4-.3.5-.3.6-.1h.6l.5.3.3.4v2.4l.1.4.1.4h-.7zm-1-.5h.2a1.2 1.2 0 00.6-.4l.1-.2v-.8h-.6c-.3 0-.6 0-.8.2a.6.6 0 00-.3.5v.3l.2.2.2.1h.3zm4.9-3.2l.7.1.5.4.3.6v1.5l-.4.6-.5.4-.7.1-.8-.1-.5-.4-.4-.6v-1.1V23l.4-.8a1.8 1.8 0 011.3-.8l.4-.1.2-.1.2-.2V21h.6v.5l-.4.4-.4.1a25.4 25.4 0 01-1 .3 1.4 1.4 0 00-.6.6l-.2.6.6-.4.7-.2zm-.1.5a1 1 0 00-.5.1 1 1 0 00-.3.3l-.2.4-.1.5v.6l.3.4.3.3.5.1.4-.1c.2 0 .3-.2.4-.3l.2-.4v-.6-.5l-.2-.4a1 1 0 00-.4-.3 1 1 0 00-.4 0zm5.2 1.2c0-.3 0-.6.2-.8l.3-.6a1.6 1.6 0 011.3-.6c.3 0 .5 0 .7.2.3 0 .4.2.6.4.2.1.3.4.3.6l.2.8c0 .3 0 .6-.2.9l-.3.6a1.6 1.6 0 01-1.3.5l-.7-.1-.6-.4-.3-.6-.2-.8v-.1zm.7 0v.6l.3.5.3.3.5.1a1 1 0 00.8-.4l.2-.5.1-.5v-.1-.6l-.3-.4a1 1 0 00-.8-.4 1 1 0 00-.5 0 1 1 0 00-.3.4l-.2.4v.6zm7.4-2v4h-.7V23h-1.3v1.1l-.1 1-.2.7-.4.4-.6.2H68v-.6h.1l.3-.1.2-.3.2-.5V22.6h2.7zm4.2 0h.6v4h-.6v-2.9l-1.8 2.9h-.7v-4h.7v3l1.8-3zm5.4 4h-.6v-1.7h-1.8v1.7H78v-4h.7v1.8h1.8v-1.7h.6v3.9zm4.2-3.4h-1.8v3.4h-.7v-4h2.5v.6zm-4-9.7l-.1 1.3a3 3 0 01-.5 1l-.8.7-1 .2c-.5 0-1 0-1.3-.2l-.8-.7V19H76V10h.7v.9a2.4 2.4 0 012.1-1c.4 0 .8 0 1.1.2l.8.7.5 1 .1 1.3v.2zm-.7-.2l-.1-1c0-.3-.2-.6-.4-.8-.1-.3-.3-.5-.6-.6l-.8-.2H78a2.4 2.4 0 00-1.2 1.1V15c0 .2.1.3.3.4 0 .2.2.3.4.4l.5.2.7.1c.3 0 .6 0 .8-.2.3-.1.5-.3.6-.5l.4-.9.1-1v-.2zm3.2 3.3H83v-9h.7v9zm6.1 0v-.4l-.1-.5-1 .7a3 3 0 01-2.1.2 2 2 0 01-.7-.4 1.7 1.7 0 01-.4-2.1l.6-.7a3 3 0 011-.4l1.2-.1h1.4V12c0-.4-.2-.8-.5-1-.2-.3-.7-.4-1.2-.4h-.7l-.6.4-.4.4v.5h-.8c0-.3 0-.5.2-.7 0-.3.3-.5.5-.6l.8-.5 1-.1 1 .1c.3 0 .5.2.7.4l.5.6.2 1v3a5 5 0 00.1 1l.1.3v.1H90zm-2.3-.5a2.6 2.6 0 001.4-.4 2.1 2.1 0 00.8-.9v-1.4h-1.3l-1 .1-.7.3-.5.4-.1.6a1.2 1.2 0 00.4 1l.4.2h.6zm7-.5l1.9-5.4h.8l-2.8 7.4c0 .2-.2.3-.3.5 0 .2-.2.4-.3.5l-.5.4a1.6 1.6 0 01-1 .2 4.3 4.3 0 01-.3-.1v-.6h.8l.4-.2c.2-.1.3-.3.3-.4l.3-.5.3-.9-2.5-6.3h.8l2 5.4z" fill="#295091"/><path d="M8.1 26.2v-18a1.6 1.6 0 011-1.5l10.5 10.5L9 27.6a1.6 1.6 0 01-.9-1.4zm15-5.7L11.4 27l9-8.7 2.5 2.3zm3.4-4.3c.3.3.6.8.6 1.3s-.3 1-.6 1.3l-2.3 1.4-2.5-2.7 2.5-2.7 2.3 1.4zm-15-8.8L23 13.8l-2.4 2.4-9-8.8zm39.3 6.4a3 3 0 01-3 3 3 3 0 01-3.1-3 3 3 0 013-3 3 3 0 013 3zm-1.4 0c0-1-.8-1.8-1.7-1.8-.9 0-1.7.7-1.7 1.8 0 1 .8 1.8 1.7 1.8 1 0 1.7-.7 1.7-1.8zm8.1 0a3 3 0 01-3 3 3 3 0 01-3-3 3 3 0 013-3 3 3 0 013 3zm-1.3 0c0-1-.8-1.8-1.7-1.8-1 0-1.7.7-1.7 1.8 0 1 .8 1.8 1.7 1.8 1 0 1.7-.7 1.7-1.8zm8.1-2.8v5.4c0 2.2-1.4 3.1-3 3.1a3 3 0 01-2.8-1.8l1.2-.4c.2.5.7 1 1.6 1 1 0 1.7-.6 1.7-1.7V16c-.4.4-1 .7-1.7.7a3 3 0 01-3-3 3 3 0 013-3c.7 0 1.3.3 1.6.7V11h1.4zm-1.2 2.8c0-1-.8-1.8-1.7-1.8-1 0-1.8.7-1.8 1.8 0 1 .8 1.8 1.8 1.8S63 15 63 13.8zm3.2-5.7v8H65v-8h1.3zm5 6.7l1 .7a2.9 2.9 0 01-5.3-1.7c0-1.8 1.3-3 2.8-3 1.5 0 2.2 1.2 2.5 1.9l.1.3-3.9 1.7c.3.6.8 1 1.4 1 .7 0 1.1-.4 1.5-.9zm-3-1l2.6-1.2c-.1-.4-.6-.7-1-.7-.7 0-1.6.6-1.6 1.8zm-28.5-1.2v-1.2h4.1v.7c0 1-.2 2-1 2.8-.8.8-1.8 1.3-3.1 1.3-2.5 0-4.6-2-4.6-4.4 0-2.4 2-4.4 4.6-4.4 1.4 0 2.3.5 3 1.2l-.8.9c-.5-.5-1.2-.9-2.2-.9a3.2 3.2 0 00-3.3 3.2c0 1.7 1.5 3.2 3.3 3.2a3 3 0 002.3-1c.3-.2.5-.7.6-1.4h-3z" fill="#295091"/></svg>