<svg width="32" height="32" fill="none" xmlns="http://www.w3.org/2000/svg"><path fill-rule="evenodd" clip-rule="evenodd" d="M16 0a16 16 0 100 32 16 16 0 000-32zm0 4.9A5.6 5.6 0 1116 16 5.6 5.6 0 0116 5zm6.3 13.5c-.7.7-1.5 1.2-2.4 1.5-.9.4-1.8.5-2.8.6l.3.4 3.9 3.8c.4.5.5 1 .3 1.5-.3.6-.9 1-1.5 1l-.9-.5-2.9-3c-.2-.3-.4-.2-.6 0l-3 3c-.4.5-1 .5-1.5.3-.5-.3-.9-.8-.8-1.4 0-.4.2-.7.4-1l3.8-3.7.3-.3a8.6 8.6 0 01-4.6-1.7l-.5-.4c-.6-.6-.6-1.2-.2-1.9.4-.5 1-.7 1.8-.4l.4.3a7.6 7.6 0 008.3 0l.9-.4c.6-.1 1.1 0 1.4.6.4.6.4 1.2 0 1.7z" fill="#295091"/><path fill-rule="evenodd" clip-rule="evenodd" d="M15.9 12.8A2.7 2.7 0 0018.4 9a2.7 2.7 0 00-3.6-1.5A2.7 2.7 0 0014 12a2.7 2.7 0 001.9.8z" fill="#295091"/></svg>