<svg width="32" height="33" fill="none" xmlns="http://www.w3.org/2000/svg"><mask id="a" maskUnits="userSpaceOnUse" x="0" y="0" width="32" height="33"><path d="M0 .2h31.8v32H0V.2z" fill="#fff"/></mask><g mask="url(#a)"><path fill-rule="evenodd" clip-rule="evenodd" d="M15.9.2a16 16 0 000 32 16 16 0 000-32zm7 12.4v.4a10.4 10.4 0 01-16 8.8 7.3 7.3 0 005.5-1.5A3.7 3.7 0 019 17.8l1.6-.1a3.7 3.7 0 01-3-3.6c.6.2 1.2.4 1.8.4a3.7 3.7 0 01-1.2-4.9 10.4 10.4 0 007.6 3.8l-.1-.8a3.7 3.7 0 016.3-2.5c.8-.2 1.6-.5 2.3-1-.3 1-.8 1.7-1.6 2.1.7 0 1.4-.3 2.1-.5-.5.7-1.1 1.3-1.8 1.9z" fill="#295091"/></g></svg>